<svg width="14" height="12" viewBox="0 0 14 12" fill="none" xmlns="http://www.w3.org/2000/svg">
<path d="M1.20178 4.43482C0.593014 4.43482 0.101562 4.92519 0.101562 5.53265C0.101562 6.14011 0.593014 6.63048 1.20178 6.63048C1.81055 6.63048 2.302 6.14011 2.302 5.53265C2.302 4.92519 1.81055 4.43482 1.20178 4.43482ZM1.20178 0.0435181C0.593014 0.0435181 0.101562 0.533881 0.101562 1.14134C0.101562 1.74881 0.593014 2.23917 1.20178 2.23917C1.81055 2.23917 2.302 1.74881 2.302 1.14134C2.302 0.533881 1.81055 0.0435181 1.20178 0.0435181ZM1.20178 8.82613C0.593014 8.82613 0.101562 9.32381 0.101562 9.92395C0.101562 10.5241 0.600337 11.0218 1.20178 11.0218C1.80323 11.0218 2.302 10.5241 2.302 9.92395C2.302 9.32381 1.81055 8.82613 1.20178 8.82613ZM3.40222 10.6558H13.6707V9.19207H3.40222V10.6558ZM3.40222 6.26453H13.6707V4.80077H3.40222V6.26453ZM3.40222 0.40946V1.87323H13.6707V0.40946H3.40222Z" fill="black"/>
</svg>
