<svg width="24" height="19" viewBox="0 0 24 19" fill="none" xmlns="http://www.w3.org/2000/svg">
<path d="M19.5694 2.46523L19.5718 2.46733C20.3693 3.17851 20.3693 4.31149 19.5718 5.02266L19.5694 5.02478L16.1724 8.09312L5.02595 18.1608H0.5V14.1696L11.5597 4.18022L15.0214 1.05355C15.8385 0.315483 17.1894 0.315483 18.0065 1.05355L19.5694 2.46523ZM4.14625 16.8275H4.33863L4.48139 16.6986L15.6672 6.59522L16.078 6.22417L15.6672 5.85312L14.1043 4.44145L13.7692 4.13874L13.434 4.44145L2.24819 14.5448L2.08333 14.6937V14.9158V16.3275V16.8275H2.58333H4.14625ZM15.6924 14.4942H22.75V18.1608H11.6329L15.6924 14.4942Z" fill="white" stroke="#46BCFF"/>
</svg>