<svg width="44" height="36" viewBox="0 0 44 36" fill="none" xmlns="http://www.w3.org/2000/svg">
<path d="M21.6461 5.35355L21.7926 5.5H21.9997H39.333C41.4402 5.5 43.1663 7.22614 43.1663 9.33333V31C43.1663 33.1072 41.4402 34.8333 39.333 34.8333H4.66634C2.55922 34.8333 0.833114 33.1073 0.833008 31.0002C0.833008 31.0001 0.833008 31.0001 0.833008 31L0.854674 5.00042V5C0.854674 2.88954 2.56241 1.16667 4.66634 1.16667H17.4592L21.6461 5.35355ZM39.333 31.5H39.833V31V9.33333V8.83333H39.333H4.66634H4.16634V9.33333V31V31.5H4.66634H39.333Z" fill="white" stroke="#46BCFF"/>
</svg>
